# xmcd CD database file
#
# Track frame offsets:
#	150
#	16435
#	28990
#	47505
#	65770
#	82277
#	96530
#	112287
#	133072
#	146085
#	158540
#	172375
#	186952
#	198252
#	213305
#	224315
#	231655
#	242155
#	257320
#	270542
#	285567
#	296887
#
# Disc length: 4179 seconds
#
# Revision: 0
# Processed by: cddbd v1.5.1PL0 Copyright (c) Steve Scherf et al.
# Submitted via: CDex 1.51
#
DISCID=6a105116
DTITLE=Lars-Luis Linek - Anything Can Happen
DYEAR=1900
DGENRE=Blues
TTITLE0=Larry Loves Sherry
TTITLE1=Toots Bops
TTITLE2=Sleepy Samba
TTITLE3=Schnuller's Shuffle
TTITLE4=Howard's Ballad
TTITLE5=Albufera De Alicante
TTITLE6=Pepe's Swing
TTITLE7=Downtown Bluesclub
TTITLE8=She's My Queen
TTITLE9=Hollow Log Blues
TTITLE10=Train, Train ,Train
TTITLE11=Röög Di
TTITLE12=Alabama
TTITLE13=Blues And Boozw
TTITLE14=Railway Ride
TTITLE15=Room To Groovw
TTITLE16=Hotcha Blues
TTITLE17=Adolfo
TTITLE18=Pierre And His Iron Horse
TTITLE19=Ballad For My Grandfatrher
TTITLE20=My Coy the Country Boy
TTITLE21=Wild Turkey
EXTD=
EXTT0=
EXTT1=
EXTT2=
EXTT3=
EXTT4=
EXTT5=
EXTT6=
EXTT7=
EXTT8=
EXTT9=
EXTT10=
EXTT11=
EXTT12=
EXTT13=
EXTT14=
EXTT15=
EXTT16=
EXTT17=
EXTT18=
EXTT19=
EXTT20=
EXTT21=
PLAYORDER=
